<?xml version="1.0" encoding="utf-8"?>
<!-- Generator: Adobe Illustrator 22.1.0, SVG Export Plug-In . SVG Version: 6.00 Build 0)  -->
<svg version="1.1" id="Layer_1" xmlns="http://www.w3.org/2000/svg" xmlns:xlink="http://www.w3.org/1999/xlink" x="0px" y="0px"
	 viewBox="0 0 125 125" style="enable-background:new 0 0 125 125;" xml:space="preserve">
<style type="text/css">
	.st0{fill:#222323;}
	.st1{fill:none;stroke:#222323;stroke-width:5;stroke-miterlimit:10;}
</style>
<path class="st0" d="M85.5,37.1l-11.9,3v35.1c0,0,0.1,9.3-11.2,18.5c0,0-6.4,4.3-11.6,4.7c-5.1,0.3-8.1,0.7-11.3-0.2v11.1
	c0,0-0.8,1.5,11.3,1.8c0,0,0,0,0,0c0.4,0,7.6-0.7,14.4-3.9c0,0,12.1-4.7,18.2-20.6c0,0,2.1-6.6,2.1-21.6S85.5,37.1,85.5,37.1z"/>
<path class="st0" d="M39.8,49.2l22.6-5.8l0.1,25.9c0,0,0.8,10.3-11.7,16c0,0-8.1,2.8-11.5,0V74.1c0,0,11.5,1.6,11.7-9.2l0.2-6.8
	l-11.4,3V49.2z"/>
<polygon class="st0" points="39.7,26.5 85.7,13.8 85.7,26.1 39.7,38.3 "/>
<path class="st1" d="M125,0H0v125h125V0z M-4.3-4.3v133.7h133.7V-4.3H-4.3z"/>
</svg>
