<?xml version="1.0" encoding="utf-8"?>
<!-- Generator: Adobe Illustrator 22.1.0, SVG Export Plug-In . SVG Version: 6.00 Build 0)  -->
<svg version="1.1" id="Layer_1" xmlns="http://www.w3.org/2000/svg" xmlns:xlink="http://www.w3.org/1999/xlink" x="0px" y="0px"
	 viewBox="0 0 125 125" style="enable-background:new 0 0 125 125;" xml:space="preserve">
<style type="text/css">
	.st0{fill:#222323;}
</style>
<polygon class="st0" points="43.5,32.6 81.8,22 81.8,32.2 43.5,42.3 "/>
<path class="st0" d="M43.6,51.5l18.8-4.9l0,21.6c0,0,0.7,8.6-9.7,13.3c0,0-6.7,2.3-9.5,0v-9.3c0,0,9.6,1.4,9.7-7.6l0.2-5.7l-9.5,2.5
	V51.5z"/>
<path class="st0" d="M81.7,41.4l-9.9,2.5v29.2c0,0,0.1,7.8-9.3,15.4c0,0-5.4,3.6-9.6,3.9c-4.3,0.3-6.7,0.5-9.4-0.2v9.2
	c0,0-0.7,1.2,9.4,1.5c0,0,0,0,0,0c0.4,0,6.4-0.6,12-3.3c0,0,10.1-3.9,15.1-17.2c0,0,1.7-5.5,1.7-18S81.7,41.4,81.7,41.4z"/>
<path d="M119,6H6v113h113V6z M0,0v125h125V0H0z"/>
</svg>
