<?xml version="1.0" encoding="utf-8"?>
<!-- Generator: Adobe Illustrator 22.1.0, SVG Export Plug-In . SVG Version: 6.00 Build 0)  -->
<svg version="1.1" id="Layer_1" xmlns="http://www.w3.org/2000/svg" xmlns:xlink="http://www.w3.org/1999/xlink" x="0px" y="0px"
	 viewBox="0 0 125 125" style="enable-background:new 0 0 125 125;" xml:space="preserve">
<style type="text/css">
	.st0{fill:#222323;}
	.st1{fill:none;stroke:#222323;stroke-width:0.75;stroke-miterlimit:10;}
</style>
<polygon class="st0" points="43.2,32 82.2,21.2 82.2,31.6 43.2,41.9 "/>
<path class="st0" d="M43.2,51.2l19.2-5l0,22c0,0,0.7,8.8-9.9,13.6c0,0-6.9,2.4-9.7,0v-9.5c0,0,9.8,1.4,9.9-7.8l0.2-5.8l-9.7,2.5
	V51.2z"/>
<path class="st0" d="M82,41L72,43.5v29.8c0,0,0.1,7.9-9.5,15.7c0,0-5.5,3.7-9.8,4c-4.4,0.3-6.9,0.6-9.6-0.2v9.4c0,0-0.7,1.2,9.6,1.5
	c0,0,0,0,0,0c0.4,0,6.5-0.6,12.2-3.3c0,0,10.3-4,15.4-17.5c0,0,1.7-5.6,1.7-18.3S82,41,82,41z"/>
<path class="st1" d="M121.5,121.5H3.5V3.5h118V121.5z"/>
</svg>
